<svg width="1797" height="371" viewBox="0 0 1797 371" fill="none" xmlns="http://www.w3.org/2000/svg">
<path d="M229.51 233.099C229.51 178.115 187.672 125.516 118.938 125.516C54.3854 125.516 0 172.734 0 249.24C0 322.156 53.1927 370.568 125.51 370.568C159.578 370.568 194.245 359.214 222.339 334.708L206.198 309.604C181.693 327.536 155.995 338.292 125.51 338.292C83.6719 338.292 53.7917 314.984 43.0313 279.12L229.51 245.052V233.099ZM120.135 157.792C159.578 157.792 186.479 185.286 191.854 218.156L38.25 246.849C38.849 192.458 74.7083 157.792 120.135 157.792Z" fill="#1DB3A4"/>
<path d="M384.897 369.968C417.767 369.968 447.652 360.406 475.147 337.098L458.413 310.796C439.283 326.937 415.376 337.692 389.678 337.692C345.449 337.692 303.012 307.812 303.012 248.041C303.012 190.067 345.449 158.39 389.079 158.39C415.376 158.39 438.689 169.145 456.616 184.088L474.548 158.39C450.043 138.067 421.949 124.916 384.897 124.916C317.954 124.916 262.371 172.734 262.371 248.041C262.371 326.937 317.954 369.968 384.897 369.968Z" fill="#1DB3A4"/>
<path d="M628.147 370.567C697.475 370.567 752.465 325.739 752.465 248.041C752.465 172.135 696.283 124.916 628.147 124.916C557.616 124.916 503.23 172.135 503.23 248.041C503.23 325.739 558.215 370.567 628.147 370.567ZM628.147 337.692C579.73 337.692 543.871 301.234 543.871 248.64C543.871 195.447 579.73 158.39 628.147 158.39C675.96 158.39 711.819 194.848 711.819 248.64C711.819 301.234 675.96 337.692 628.147 337.692Z" fill="#1DB3A4"/>
<path d="M976.583 8.96875V148.229C956.859 133.286 934.146 124.917 906.651 124.917C842.698 124.917 785.922 172.135 785.922 248.641C785.922 325.74 842.104 369.969 906.651 369.969C934.745 369.969 960.443 360.406 982.557 343.073L991.526 365.786H1016.03V0L976.583 8.96875ZM826.563 249.24C826.563 194.849 864.219 158.391 912.63 158.391C937.135 158.391 958.052 166.161 976.583 181.698V314.385C956.26 328.729 935.938 337.693 912.63 337.693C864.219 337.693 826.563 301.234 826.563 249.24Z" fill="#1DB3A4"/>
<path d="M1182.18 370.567C1251.51 370.567 1306.5 325.739 1306.5 248.041C1306.5 172.135 1250.31 124.916 1182.18 124.916C1111.65 124.916 1057.26 172.135 1057.26 248.041C1057.26 325.739 1112.25 370.567 1182.18 370.567ZM1182.18 337.692C1133.76 337.692 1097.9 301.234 1097.9 248.64C1097.9 195.447 1133.76 158.39 1182.18 158.39C1229.99 158.39 1265.85 194.848 1265.85 248.64C1265.85 301.234 1229.99 337.692 1182.18 337.692Z" fill="#1DB3A4"/>
<path d="M1455.9 164.963V132.088H1388.37V48.416L1348.32 57.9785V307.213C1348.32 349.051 1374.62 370.567 1410.48 370.567C1427.22 370.567 1437.98 368.775 1451.12 361.604L1437.38 337.098C1432.6 338.89 1426.62 339.489 1419.45 339.489C1399.13 339.489 1388.37 326.937 1388.37 304.822V164.963H1455.9Z" fill="#1DB3A4"/>
<path d="M1574.24 370.568C1629.23 370.568 1668.67 344.271 1668.67 303.625C1668.67 217.563 1524.03 236.089 1524.03 188.87C1524.03 171.536 1546.75 158.391 1576.63 158.391C1605.32 158.391 1629.23 167.354 1647.75 182.297L1665.09 157.193C1644.77 138.667 1611.29 125.516 1576.63 125.516C1526.42 125.516 1483.39 151.219 1483.39 188.87C1483.39 270.755 1628.63 246.849 1628.63 303.031C1628.63 323.948 1604.72 338.292 1573.64 338.292C1545.55 338.292 1519.25 328.729 1498.93 314.385L1482.2 339.49C1500.13 356.224 1537.18 370.568 1574.24 370.568Z" fill="#1DB3A4"/>
<path d="M1743.7 84.5742C1712.09 84.5742 1691.09 108.605 1691.09 138.913C1691.09 169.22 1712.09 193.251 1743.7 193.251C1774.88 193.251 1796.09 169.22 1796.09 138.913C1796.09 108.605 1774.88 84.5742 1743.7 84.5742ZM1743.7 179.397C1721.83 179.397 1706.25 162.725 1706.25 138.913C1706.25 115.1 1721.83 98.4284 1743.7 98.4284C1765.57 98.4284 1780.94 115.1 1780.94 138.913C1780.94 162.725 1765.57 179.397 1743.7 179.397ZM1754.74 144.757C1761.89 142.163 1766.86 137.184 1766.86 129.387C1766.86 116.616 1756.47 109.47 1740.67 109.47H1720.76V166.84H1738.07V147.142C1743.27 151.902 1748.46 160.345 1750.63 166.84H1768.6C1766.22 159.699 1761.02 149.522 1754.74 144.757ZM1740.67 123.324C1745.43 123.324 1749.55 125.491 1749.55 130.038C1749.55 135.668 1745.43 137.829 1740.67 137.829H1738.07V123.324H1740.67Z" fill="#1DB3A4"/>
</svg>
